# xmcd
# 
# Track frame offsets:
#     150
#     22192
#     66280
#     100839
#     128599
#     153754
#     178431
#     218770
#     236737
# 
# Disc length: 3560
# 
# Revision: 10
# Processed by: cddbd v1.5.2PL0 Copyright (c) Steve Scherf et al.
# Submitted via: BonkEnc v1.0.8
# 
DISCID=7b0de609
DTITLE=Eddy Louiss - trio and fanfare  ( Sentimental Felling )
DYEAR=1998
DGENRE=Jazz
TTITLE0=Sentimental feeling  ...  [Eddy Louiss]
TTITLE1=Le destin  (dédié à Michel Petrucciani)  ...  [Eddy Louiss]
TTITLE2=Cahin-caha  ...  [Eddy Louiss]
TTITLE3=Blind man  ...  [Eddy Louiss]
TTITLE4=La scorpionne  ...  [Eddy Louiss]
TTITLE5=Insomnie  ...  [Eddy Louiss]
TTITLE6=High life  ...  [Eddy Louiss]
TTITLE7=Celestin  ...  [Marthe Alessandrini and Albert Lirvat]
TTITLE8=Enlacés  ...  [Eddy Louiss]
EXTD=Eddy Louis Trio and Fanfare YEAR: 1998
EXTT0=
EXTT1="Le destin" is dedicated to Michel Petrucciani
EXTT2=
EXTT3=
EXTT4=
EXTT5=
EXTT6=
EXTT7=
EXTT8=
PLAYORDER=
